<?xml version="1.0" encoding="UTF-8"?>
<!DOCTYPE svg PUBLIC "-//W3C//DTD SVG 1.1//EN" "http://www.w3.org/Graphics/SVG/1.1/DTD/svg11.dtd">
<!-- Creator: CorelDRAW 2020 (64-Bit) -->
<svg xmlns="http://www.w3.org/2000/svg" xml:space="preserve" width="20mm" height="20mm" version="1.1" style="shape-rendering:geometricPrecision; text-rendering:geometricPrecision; image-rendering:optimizeQuality; fill-rule:evenodd; clip-rule:evenodd"
viewBox="0 0 1985.84 1985.84"
 xmlns:xlink="http://www.w3.org/1999/xlink"
 xmlns:xodm="http://www.corel.com/coreldraw/odm/2003">
 <defs>
  <style type="text/css">
   <![CDATA[
    .fil0 {fill:#009B4C;fill-rule:nonzero}
   ]]>
  </style>
 </defs>
 <g id="图层_x0020_1">
  <metadata id="CorelCorpID_0Corel-Layer"/>
  <g id="_1096445328">
   <path class="fil0" d="M1100.09 806.27c0,29.16 15.57,56.12 40.83,70.7 25.26,14.6 56.38,14.6 81.65,0 25.26,-14.58 40.82,-41.53 40.82,-70.7 0,-29.17 -15.56,-56.13 -40.82,-70.72 -25.27,-14.58 -56.39,-14.58 -81.65,0 -25.26,14.59 -40.83,41.54 -40.83,70.72z"/>
   <path class="fil0" d="M898.12 1010.39c0,29.16 15.57,56.13 40.83,70.71 25.26,14.59 56.38,14.59 81.65,0 25.26,-14.58 40.82,-41.54 40.82,-70.71 0,-45.09 -36.55,-81.65 -81.65,-81.65 -45.09,0 -81.65,36.56 -81.65,81.65z"/>
   <path class="fil0" d="M696.15 1212.36c-0.01,29.17 15.55,56.13 40.81,70.72 25.28,14.59 56.41,14.59 81.67,0 25.26,-14.59 40.82,-41.54 40.82,-70.72 0,-29.18 -15.56,-56.14 -40.82,-70.73 -25.26,-14.6 -56.39,-14.6 -81.67,0 -25.26,14.59 -40.82,41.54 -40.81,70.73z"/>
   <path class="fil0" d="M1890.78 198.21l-103.13 -103.12c-126.77,-126.78 -333.04,-126.78 -459.8,0l-393.2 393.2c-55.86,55.86 -90.25,128.91 -94.54,208.41 -2.15,40.82 27.93,77.35 70.9,79.49 40.82,2.15 77.35,-27.93 79.49,-70.9 2.15,-42.97 21.49,-81.65 51.57,-111.72l393.2 -393.2c68.75,-68.76 180.48,-68.76 247.09,0l103.13 103.13c68.75,68.75 68.75,180.48 0,247.09l-393.2 393.2c-36.53,36.53 -85.95,53.72 -137.52,51.56 -40.82,-2.14 -77.35,27.93 -79.49,68.76 -2.14,40.82 27.93,77.35 68.75,79.49l23.64 0c85.95,0 169.74,-34.37 229.9,-94.54l393.2 -393.2c126.75,-124.62 126.75,-330.89 0,-457.66zm-814.32 1012c-40.83,-2.15 -77.35,27.93 -79.5,70.9 -2.14,42.97 -21.48,81.65 -51.56,111.72l-393.2 393.2c-32.23,32.23 -77.35,51.56 -124.62,51.56 -47.26,0 -90.24,-17.19 -124.61,-51.56l-103.13 -103.13c-32.23,-32.23 -51.57,-77.35 -51.57,-124.62 0,-47.26 17.19,-90.24 51.57,-124.61l393.19 -393.2c36.53,-36.53 85.95,-53.72 137.51,-51.57 40.83,2.14 77.36,-27.93 79.5,-68.75 2.14,-40.83 -27.93,-77.35 -68.75,-79.5 -94.55,-6.44 -186.94,27.93 -253.54,94.54l-393.19 393.2c-62.32,62.32 -94.55,143.96 -94.55,229.9 0,88.09 34.37,169.74 94.55,229.91l103.12 103.13c62.32,62.29 143.96,94.52 229.9,94.52 85.95,0 169.74,-34.37 229.9,-94.52l393.2 -393.2c55.86,-55.87 90.25,-128.92 94.55,-208.42 2.14,-40.82 -27.94,-77.35 -68.76,-79.49z"/>
  </g>
 </g>
</svg>
