<?xml version="1.0" encoding="UTF-8"?>
<!DOCTYPE svg PUBLIC "-//W3C//DTD SVG 1.1//EN" "http://www.w3.org/Graphics/SVG/1.1/DTD/svg11.dtd">
<!-- Creator: CorelDRAW 2020 (64-Bit) -->
<svg xmlns="http://www.w3.org/2000/svg" xml:space="preserve" width="19.9992mm" height="19.7313mm" version="1.1" style="shape-rendering:geometricPrecision; text-rendering:geometricPrecision; image-rendering:optimizeQuality; fill-rule:evenodd; clip-rule:evenodd"
viewBox="0 0 1985.76 1959.16"
 xmlns:xlink="http://www.w3.org/1999/xlink"
 xmlns:xodm="http://www.corel.com/coreldraw/odm/2003">
 <defs>
  <style type="text/css">
   <![CDATA[
    .fil0 {fill:#E62129;fill-rule:nonzero}
   ]]>
  </style>
 </defs>
 <g id="图层_x0020_1">
  <metadata id="CorelCorpID_0Corel-Layer"/>
  <path class="fil0" d="M1008.1 1065.13c0,40.79 33.06,73.85 73.85,73.85 40.79,0 73.84,-33.06 73.84,-73.85 0,-40.79 -33.05,-73.85 -73.85,-73.85 -40.79,0 -73.85,33.06 -73.85,73.85l0.01 0zm-182.7 -182.7c0,40.79 33.07,73.85 73.86,73.85 40.78,0 73.83,-33.06 73.83,-73.85 0,-40.79 -33.05,-73.85 -73.83,-73.85 -40.79,0 -73.86,33.06 -73.86,73.85zm-182.69 -182.7c0,40.79 33.06,73.86 73.85,73.86 40.79,0 73.85,-33.07 73.85,-73.86 0,-40.79 -33.06,-73.85 -73.85,-73.85 -40.79,0 -73.85,33.06 -73.85,73.85zm-235.17 1259.43c-54.42,0 -108.83,-15.55 -157.43,-46.65l-112.73 -71.91c-138,-87.46 -178.81,-270.15 -91.35,-406.2l270.15 -425.65c36.93,-60.25 95.24,-103.01 163.26,-124.38 34.99,-11.67 73.86,9.71 85.52,44.7 11.66,36.93 -9.72,73.85 -44.7,85.51 -36.93,11.67 -68.02,34.99 -87.46,66.09l-270.16 425.64c-46.64,73.86 -25.26,172.98 48.59,219.62l112.73 71.92c34.98,23.31 77.75,29.14 120.5,21.38 40.82,-9.72 77.75,-33.04 99.12,-69.97l270.15 -425.65c21.38,-33.03 29.15,-71.91 23.32,-108.83 -5.83,-36.93 19.43,-71.92 56.36,-77.75 36.92,-5.83 71.92,19.44 77.75,56.37 11.67,69.96 -3.88,143.82 -42.76,202.13l-270.17 425.64c-42.75,66.08 -106.88,112.73 -184.62,130.22 -21.38,5.83 -42.76,7.77 -66.08,7.77zm862.94 -989.28c-13.61,0 -27.21,0 -40.82,-1.94 -36.92,-5.83 -64.14,-38.87 -58.31,-75.8 5.83,-36.93 38.87,-62.2 75.8,-58.3 36.93,5.83 75.8,-3.89 106.9,-23.32l423.7 -274.05c34.98,-23.32 60.25,-58.3 68.02,-99.12 7.78,-40.81 1.95,-83.56 -21.38,-118.55l-71.91 -110.78c-46.65,-73.85 -145.77,-95.24 -219.62,-46.65l-423.7 274.05c-33.03,21.38 -56.35,52.47 -66.08,89.4 -9.7,36.93 -48.57,56.36 -83.55,46.65 -36.93,-9.72 -56.37,-48.59 -46.67,-83.58 19.45,-68.02 64.15,-128.27 122.46,-167.14l423.69 -274.05c136.05,-87.46 318.75,-48.58 408.15,87.47l71.91 110.78c87.47,136.05 48.59,318.74 -87.46,408.15l-423.7 274.04c-44.69,25.27 -101.05,42.76 -157.42,42.76z"/>
 </g>
</svg>
