<?xml version="1.0" standalone="no"?><!DOCTYPE svg PUBLIC "-//W3C//DTD SVG 1.1//EN" "http://www.w3.org/Graphics/SVG/1.1/DTD/svg11.dtd"><svg t="1608177551602" class="icon" viewBox="0 0 1024 1024" version="1.1" xmlns="http://www.w3.org/2000/svg" p-id="6299" xmlns:xlink="http://www.w3.org/1999/xlink" width="200" height="200"><defs><style type="text/css"></style></defs><path d="M322.730667 822.613333a413.44 413.44 0 0 0 106.496-9.258666 375.466667 375.466667 0 0 1 127.146666-5.589334c23.338667 2.858667 42.026667 7.04 54.954667 10.965334 45.994667 11.733333 111.36 9.514667 128.213333-17.493334 12.416-19.968 10.794667-33.578667-1.109333-51.157333a80.469333 80.469333 0 0 0-9.045333-11.093333 1066.922667 1066.922667 0 0 1-31.701334-26.368 1093.034667 1093.034667 0 0 1-74.794666-70.826667 689.109333 689.109333 0 0 1-67.285334-80.768l-1.536-2.261333c-31.658667-48.597333-66.474667-45.525333-85.418666-13.525334a409.770667 409.770667 0 0 1-40.746667 56.789334c-17.493333 20.565333-35.413333 37.973333-55.68 55.338666-5.248 4.48-21.461333 17.92-17.578667 14.677334-0.170667 0.128-0.725333 0.64 2.176-3.029334-4.181333 5.12-40.533333 37.418667-51.2 49.578667-21.973333 24.874667-30.848 46.08-27.52 63.146667 3.072 16.042667 9.344 25.045333 19.2 31.786666a61.098667 61.098667 0 0 0 20.48 8.789334l4.949334 0.298666z m302.848-310.442666c58.709333 84.053333 159.232 161.834667 159.232 161.834666s88.021333 74.581333 27.178666 172.288c-60.842667 97.706667-224.128 54.528-224.128 54.528s-64.853333-20.906667-140.202666-4.181333c-75.306667 16.853333-140.202667 10.453333-140.202667 10.453333S213.333333 896.64 194.304 797.909333c-19.029333-98.730667 87.893333-172.373333 96.341333-182.784 8.32-10.538667 64.512-45.781333 104.618667-113.408 40.106667-67.669333 152.874667-108.373333 230.314667 10.453334z m236.330666-60.586667c0 19.541333 8.106667 102.101333-66.261333 103.765333-74.325333 1.621333-77.482667-50.261333-77.482667-87.466666 0-38.954667 8.021333-94.08 67.84-94.08 59.733333 0 75.904 58.410667 75.904 77.824z m-231.68-118.485333c-50.346667-6.485333-61.738667-52.138667-56.874666-97.834667 4.096-37.333333 48.768-94.677333 84.522666-86.442667 35.712 8.106667 68.266667 55.466667 61.696 96.170667-6.442667 40.832-38.869333 94.634667-89.344 88.106667zM416.213333 317.44c-36.693333 0-66.56-42.368-66.56-94.72 0-52.352 29.824-94.72 66.56-94.72 36.821333 0 66.56 42.368 66.56 94.72 0 52.352-29.738667 94.72-66.56 94.72z m-161.834666 194.816c-72.32 15.573333-99.242667-68.138667-91.306667-107.306667 0 0 8.533333-84.778667 67.242667-90.026666 46.634667-4.053333 80.981333 46.976 84.522666 76.16 2.176 18.944 12.074667 105.6-60.458666 121.173333z" p-id="6300"></path></svg>