<?xml version="1.0" encoding="UTF-8"?>
<!DOCTYPE svg PUBLIC "-//W3C//DTD SVG 1.1//EN" "http://www.w3.org/Graphics/SVG/1.1/DTD/svg11.dtd">
<!-- Creator: CorelDRAW 2020 (64-Bit) -->
<svg xmlns="http://www.w3.org/2000/svg" xml:space="preserve" width="19.4924mm" height="20mm" version="1.1" style="shape-rendering:geometricPrecision; text-rendering:geometricPrecision; image-rendering:optimizeQuality; fill-rule:evenodd; clip-rule:evenodd"
viewBox="0 0 1935.08 1985.47"
 xmlns:xlink="http://www.w3.org/1999/xlink"
 xmlns:xodm="http://www.corel.com/coreldraw/odm/2003">
 <defs>
  <style type="text/css">
   <![CDATA[
    .fil0 {fill:#E62129;fill-rule:nonzero}
   ]]>
  </style>
 </defs>
 <g id="图层_x0020_1">
  <metadata id="CorelCorpID_0Corel-Layer"/>
  <path class="fil0" d="M992.63 1985.47c-556.64,0 -992.63,-426.31 -992.63,-970.57 0,-550.11 454.67,-1014.91 992.63,-1014.91 438.25,0 811.11,285.55 942.4,680.32l-102.73 43.14c-113.98,-354.93 -447.32,-612.5 -839.67,-612.5 -478.08,0 -881.89,413.93 -881.89,903.94 0,481.91 387.37,859.59 881.89,859.59 392.32,0 725.51,-257.54 839.57,-612.54l102.89 43.22c-131.23,394.81 -504.14,680.29 -942.46,680.29zm262.98 -754.03c-4.5,0 -8.78,-0.45 -13.27,-1.12l-525.8 -96.12c-35.11,-6.52 -60.77,-37.13 -60.77,-72.7l0 -503.07c0,-40.96 33.08,-74.05 74.05,-74.05 40.96,0 74.06,33.09 74.06,74.05l0 441.17 465.02 84.86c40.3,7.42 66.85,45.91 59.43,86.2 -6.53,35.79 -37.59,60.78 -72.71,60.78z"/>
 </g>
</svg>
