<?xml version="1.0" encoding="UTF-8"?>
<!DOCTYPE svg PUBLIC "-//W3C//DTD SVG 1.1//EN" "http://www.w3.org/Graphics/SVG/1.1/DTD/svg11.dtd">
<!-- Creator: CorelDRAW 2020 (64-Bit) -->
<svg xmlns="http://www.w3.org/2000/svg" xml:space="preserve" width="20mm" height="20mm" version="1.1" style="shape-rendering:geometricPrecision; text-rendering:geometricPrecision; image-rendering:optimizeQuality; fill-rule:evenodd; clip-rule:evenodd"
viewBox="0 0 1985.84 1985.84"
 xmlns:xlink="http://www.w3.org/1999/xlink"
 xmlns:xodm="http://www.corel.com/coreldraw/odm/2003">
 <defs>
  <style type="text/css">
   <![CDATA[
    .fil0 {fill:#009B4C;fill-rule:nonzero}
   ]]>
  </style>
 </defs>
 <g id="图层_x0020_1">
  <metadata id="CorelCorpID_0Corel-Layer"/>
  <path class="fil0" d="M992.81 1985.84c-556.74,0 -992.81,-426.39 -992.81,-970.75 0,-550.21 454.76,-1015.09 992.81,-1015.09 547.5,0 993.03,445.52 993.03,993.03 0,547.52 -445.53,992.81 -993.03,992.81zm263.02 -754.17c-4.5,0 -8.78,-0.45 -13.28,-1.12l-525.9 -96.13c-35.12,-6.52 -60.78,-37.14 -60.78,-72.71l0 -503.16c0,-40.97 33.08,-74.06 74.06,-74.06 40.97,0 74.07,33.09 74.07,74.06l0 441.25 465.1 84.87c40.3,7.42 66.86,45.92 59.44,86.22 -6.53,35.79 -37.59,60.79 -72.72,60.79zm-263.02 -1120.68c-478.17,0 -882.05,414.01 -882.05,904.1 0,482 387.44,859.75 882.05,859.75 486.27,0 881.81,-395.54 881.81,-882.03 0.23,-486.27 -395.54,-881.82 -881.81,-881.82z"/>
 </g>
</svg>
