<?xml version="1.0" encoding="UTF-8"?>
<!DOCTYPE svg PUBLIC "-//W3C//DTD SVG 1.1//EN" "http://www.w3.org/Graphics/SVG/1.1/DTD/svg11.dtd">
<!-- Creator: CorelDRAW 2020 (64-Bit) -->
<svg xmlns="http://www.w3.org/2000/svg" xml:space="preserve" width="20mm" height="15.9462mm" version="1.1" style="shape-rendering:geometricPrecision; text-rendering:geometricPrecision; image-rendering:optimizeQuality; fill-rule:evenodd; clip-rule:evenodd"
viewBox="0 0 1985.84 1583.33"
 xmlns:xlink="http://www.w3.org/1999/xlink"
 xmlns:xodm="http://www.corel.com/coreldraw/odm/2003">
 <defs>
  <style type="text/css">
   <![CDATA[
    .fil0 {fill:#009B4C;fill-rule:nonzero}
   ]]>
  </style>
 </defs>
 <g id="图层_x0020_1">
  <metadata id="CorelCorpID_0Corel-Layer"/>
  <path class="fil0" d="M1959.07 503.72l-983.93 0 0 1001.03 -409.6 0 0 -1001.03 -552.15 0c-7.34,0 -13.38,31.94 -13.38,39.29 0,7.34 6.05,39.28 13.38,39.28l472.98 0 0 1001.04 567.34 0 0 -1001.04 905.36 0c7.26,0 13.38,-31.94 13.38,-39.28 0,-7.35 -6.13,-39.29 -13.38,-39.29zm-159.29 -503.72l0 98.17 -1786.39 0c-7.34,0 -13.38,31.95 -13.38,39.29 0,7.25 6.05,39.29 13.38,39.29l1786.39 0 0 98.08 186.06 -137.37 -186.06 -137.46z"/>
 </g>
</svg>
