<?xml version="1.0" encoding="UTF-8"?>
<!DOCTYPE svg PUBLIC "-//W3C//DTD SVG 1.1//EN" "http://www.w3.org/Graphics/SVG/1.1/DTD/svg11.dtd">
<!-- Creator: CorelDRAW 2020 (64-Bit) -->
<svg xmlns="http://www.w3.org/2000/svg" xml:space="preserve" width="23.7889mm" height="21.4741mm" version="1.1" style="shape-rendering:geometricPrecision; text-rendering:geometricPrecision; image-rendering:optimizeQuality; fill-rule:evenodd; clip-rule:evenodd"
viewBox="0 0 476.47 430.11"
 xmlns:xlink="http://www.w3.org/1999/xlink"
 xmlns:xodm="http://www.corel.com/coreldraw/odm/2003">
 <defs>
  <style type="text/css">
   <![CDATA[
    .fil0 {fill:#008FD7}
   ]]>
  </style>
 </defs>
 <g id="图层_x0020_1">
  <metadata id="CorelCorpID_0Corel-Layer"/>
  <path class="fil0" d="M329.39 41.3c7.33,0 13.28,5.94 13.28,13.28 0,7.33 -5.94,13.27 -13.28,13.27 -7.33,0 -13.27,-5.94 -13.27,-13.27 0,-7.33 5.94,-13.28 13.27,-13.28zm-152.12 -33.42c26,15.65 34.39,49.42 18.74,75.42 -3.33,5.53 -7.48,10.26 -12.2,14.14 -0.9,0.87 -1.83,1.7 -2.78,2.49 -0.92,0.9 -1.86,1.76 -2.83,2.58 -0.9,0.9 -1.83,1.76 -2.79,2.59 -0.88,0.9 -1.79,1.76 -2.74,2.59 -0.86,0.9 -1.76,1.77 -2.68,2.59 -0.86,0.92 -1.75,1.8 -2.67,2.64 -0.84,0.93 -1.72,1.81 -2.63,2.66 -0.83,0.94 -1.69,1.83 -2.59,2.69 -0.81,0.94 -1.66,1.84 -2.54,2.71 -0.8,0.95 -1.63,1.87 -2.5,2.75 -1.17,1.45 -2.43,2.81 -3.77,4.09 -1.04,1.52 -2.18,2.96 -3.41,4.32 -0.72,0.99 -1.48,1.95 -2.28,2.87 -0.7,1 -1.44,1.97 -2.23,2.91 -0.67,1.01 -1.39,1.99 -2.16,2.94 -0.66,1.03 -1.36,2.03 -2.11,3 -0.63,1.04 -1.32,2.05 -2.04,3.02 -0.61,1.05 -1.27,2.07 -1.97,3.06 -0.59,1.06 -1.22,2.09 -1.9,3.09 -0.56,1.07 -1.18,2.12 -1.84,3.13 -0.54,1.08 -1.14,2.14 -1.78,3.17 -0.52,1.1 -1.1,2.19 -1.72,3.24 -0.5,1.11 -1.05,2.2 -1.65,3.25 -0.48,1.12 -1.01,2.22 -1.59,3.29 -0.46,1.13 -0.97,2.23 -1.53,3.32 -0.44,1.14 -0.93,2.26 -1.47,3.36 -0.42,1.15 -0.89,2.28 -1.41,3.39 -0.4,1.16 -0.85,2.3 -1.36,3.42 -0.38,1.17 -0.82,2.32 -1.31,3.46 -0.37,1.18 -0.79,2.34 -1.25,3.49 -0.35,1.19 -0.76,2.37 -1.21,3.53 -0.34,1.19 -0.73,2.38 -1.17,3.55 -0.32,1.2 -0.7,2.39 -1.12,3.57 -0.31,1.2 -0.67,2.4 -1.08,3.58 -0.3,1.21 -0.64,2.41 -1.04,3.6 -0.29,1.22 -0.62,2.43 -1.01,3.63 -0.28,1.22 -0.6,2.44 -0.97,3.65 -0.27,1.25 -0.59,2.49 -0.96,3.72 -0.26,1.22 -0.56,2.44 -0.91,3.65 -1.22,5.98 -3.45,11.86 -6.78,17.39 -15.65,26 -49.42,34.4 -75.42,18.74 -26,-15.65 -34.39,-49.42 -18.74,-75.42 3.33,-5.53 7.48,-10.26 12.2,-14.14 0.92,-0.88 1.86,-1.73 2.83,-2.54 0.93,-0.91 1.89,-1.79 2.88,-2.62 0.88,-0.88 1.79,-1.72 2.73,-2.53 0.9,-0.92 1.82,-1.79 2.78,-2.63 0.87,-0.9 1.76,-1.76 2.68,-2.59 0.86,-0.92 1.75,-1.79 2.66,-2.63l0.16 -0.18c0.79,-0.86 1.61,-1.67 2.44,-2.46 0.54,-0.61 1.11,-1.22 1.69,-1.8 0.29,-0.3 0.59,-0.59 0.89,-0.87 0.8,-0.92 1.63,-1.82 2.51,-2.69 0.78,-0.94 1.61,-1.85 2.48,-2.74 0.77,-0.95 1.58,-1.88 2.45,-2.78 0.76,-0.97 1.56,-1.91 2.4,-2.82 0.73,-0.97 1.51,-1.92 2.33,-2.83 0.73,-1.01 1.5,-1.99 2.33,-2.93 0.69,-0.99 1.43,-1.96 2.21,-2.89 0.67,-1.01 1.39,-1.99 2.16,-2.94 0.66,-1.03 1.36,-2.03 2.12,-3 0.63,-1.03 1.31,-2.03 2.03,-3 0.6,-1.04 1.26,-2.05 1.96,-3.03 0.58,-1.05 1.22,-2.08 1.89,-3.07 0.56,-1.07 1.17,-2.11 1.83,-3.11 0.54,-1.08 1.13,-2.13 1.77,-3.16 0.52,-1.1 1.09,-2.17 1.71,-3.2 0.5,-1.11 1.05,-2.19 1.65,-3.25 0.48,-1.13 1.02,-2.24 1.6,-3.32 0.46,-1.13 0.97,-2.24 1.52,-3.32 0.44,-1.15 0.94,-2.28 1.47,-3.37 0.64,-1.75 1.39,-3.45 2.25,-5.08 0.51,-1.81 1.14,-3.57 1.86,-5.27 0.37,-1.18 0.79,-2.34 1.25,-3.47 0.36,-1.19 0.76,-2.36 1.21,-3.5 0.11,-0.39 0.23,-0.78 0.35,-1.17 0.25,-0.79 0.52,-1.57 0.81,-2.34 0.3,-1.11 0.64,-2.21 1.03,-3.3l0.09 -0.25c0.31,-1.2 0.67,-2.39 1.08,-3.57 0.3,-1.2 0.64,-2.39 1.04,-3.58 0.29,-1.24 0.63,-2.47 1.03,-3.7 0.27,-1.2 0.59,-2.4 0.96,-3.6 0.28,-1.26 0.6,-2.52 0.97,-3.78 0.26,-1.21 0.55,-2.42 0.9,-3.62 1.21,-5.99 3.45,-11.89 6.79,-17.43 15.65,-26 49.42,-34.39 75.42,-18.74zm169 18.68c-16.15,-9.72 -37.12,-4.51 -46.84,11.64 -6.51,10.82 -6.32,23.79 -0.63,34.11l9.11 -5.04c-3.95,-7.17 -4.09,-16.18 0.43,-23.7 6.76,-11.22 21.33,-14.84 32.55,-8.09 11.22,6.75 14.84,21.33 8.09,32.55 -4.47,7.42 -12.35,11.51 -20.43,11.49l-0.19 10.41c11.67,0.09 23.09,-5.8 29.54,-16.53 9.72,-16.15 4.51,-37.12 -11.64,-46.84zm10.02 -16.65c-26,-15.65 -59.77,-7.26 -75.42,18.74 -10.49,17.42 -10.16,38.32 -1,54.93l9.11 -5.04c-7.43,-13.46 -7.69,-30.4 0.81,-44.52 12.69,-21.08 40.06,-27.88 61.13,-15.19 21.08,12.69 27.88,40.06 15.19,61.13 -8.44,14.02 -23.39,21.72 -38.65,21.57l-0.19 10.41c18.86,0.21 37.33,-9.28 47.76,-26.6 15.65,-26 7.26,-59.77 -18.74,-75.42zm-159.93 377.61c-1.3,4.54 -3.21,8.99 -5.76,13.22 -15.65,26 -49.42,34.39 -75.42,18.74 -26,-15.65 -34.39,-49.42 -18.74,-75.42 2.54,-4.22 5.57,-7.98 8.95,-11.24 0.88,-0.99 1.78,-1.95 2.72,-2.86 0.87,-1 1.78,-1.97 2.72,-2.9 0.85,-1 1.73,-1.95 2.65,-2.87 0.85,-1.02 1.74,-1.99 2.66,-2.93 0.85,-1.03 1.73,-2.02 2.65,-2.97 0.82,-1.02 1.68,-2 2.58,-2.95 0.81,-1.03 1.66,-2.02 2.55,-2.97 0.8,-1.03 1.63,-2.02 2.5,-2.98 0.79,-1.05 1.62,-2.06 2.49,-3.03 0.78,-1.06 1.6,-2.07 2.46,-3.05 0.76,-1.06 1.56,-2.08 2.41,-3.06 0.75,-1.07 1.54,-2.1 2.37,-3.09 0.73,-1.08 1.51,-2.12 2.33,-3.12 0.72,-1.08 1.48,-2.13 2.29,-3.14 0.7,-1.09 1.45,-2.14 2.24,-3.15 0.69,-1.1 1.42,-2.17 2.2,-3.2 0.67,-1.11 1.39,-2.18 2.16,-3.22 0.66,-1.12 1.37,-2.2 2.12,-3.25 0.64,-1.12 1.33,-2.22 2.07,-3.27 0.63,-1.14 1.31,-2.25 2.03,-3.32 0.61,-1.14 1.27,-2.25 1.97,-3.33 0.59,-1.15 1.24,-2.27 1.93,-3.36 0.57,-1.15 1.2,-2.28 1.88,-3.37 0.57,-1.17 1.18,-2.32 1.85,-3.44 0.55,-1.17 1.14,-2.32 1.79,-3.43 0.53,-1.19 1.12,-2.35 1.76,-3.49 0.52,-1.18 1.09,-2.35 1.7,-3.48 0.5,-1.2 1.06,-2.37 1.66,-3.52 0.49,-1.2 1.03,-2.38 1.62,-3.54 0.48,-1.21 1.01,-2.41 1.59,-3.58 0.47,-1.23 0.99,-2.43 1.56,-3.62 0.45,-1.22 0.95,-2.41 1.5,-3.59 0.44,-1.23 0.94,-2.45 1.48,-3.65 0.43,-1.23 0.91,-2.45 1.43,-3.65 0.42,-1.24 0.89,-2.46 1.4,-3.67 0.41,-1.24 0.86,-2.47 1.37,-3.68 0.4,-1.26 0.85,-2.5 1.35,-3.73 0.39,-1.27 0.83,-2.52 1.33,-3.76 0.38,-1.25 0.8,-2.49 1.27,-3.72 0.37,-1.26 0.79,-2.5 1.25,-3.74 2.54,-8.88 7.36,-17.24 14.44,-24.15 21.72,-21.2 56.51,-20.78 77.71,0.94 7,7.17 11.64,15.77 13.94,24.84 0.43,1.26 0.81,2.53 1.14,3.82 0.43,1.24 0.82,2.49 1.16,3.75 0.46,1.27 0.86,2.54 1.22,3.83 0.45,1.23 0.86,2.48 1.21,3.73 0.47,1.24 0.9,2.5 1.27,3.77 0.47,1.21 0.9,2.43 1.27,3.66 0.51,1.26 0.96,2.52 1.36,3.8 0.5,1.2 0.94,2.4 1.33,3.62 0.51,1.2 0.97,2.41 1.38,3.63 0.54,1.22 1.02,2.45 1.45,3.68 0.54,1.18 1.02,2.38 1.45,3.58 0.55,1.18 1.05,2.35 1.5,3.57 0.41,0.84 0.79,1.69 1.15,2.56 0.14,0.33 0.26,0.65 0.39,0.98 0.57,1.14 1.11,2.32 1.59,3.53 0.59,1.14 1.13,2.3 1.63,3.5 0.6,1.13 1.17,2.29 1.68,3.48 0.63,1.13 1.21,2.29 1.74,3.49 0.64,1.12 1.24,2.27 1.78,3.46 0.65,1.11 1.26,2.25 1.82,3.42 0.67,1.1 1.3,2.24 1.87,3.4 0.69,1.09 1.33,2.22 1.92,3.37 0.7,1.08 1.36,2.2 1.96,3.35 0.71,1.07 1.38,2.17 2,3.3 0.74,1.07 1.42,2.17 2.06,3.3 0.75,1.05 1.44,2.14 2.09,3.25 0.24,0.33 0.48,0.67 0.71,1 0.56,-0.82 1.16,-1.62 1.79,-2.39 0.66,-1.03 1.37,-2.03 2.12,-3.01 0.63,-1.03 1.31,-2.03 2.03,-3.01 0.61,-1.04 1.26,-2.05 1.96,-3.03 0.58,-1.05 1.22,-2.08 1.89,-3.07 0.56,-1.07 1.17,-2.11 1.83,-3.11 0.54,-1.08 1.13,-2.14 1.77,-3.16 0.52,-1.1 1.09,-2.16 1.71,-3.2 0.5,-1.12 1.06,-2.21 1.66,-3.28 0.48,-1.12 1.01,-2.21 1.58,-3.27 0.46,-1.14 0.97,-2.24 1.53,-3.32 0.45,-1.17 0.95,-2.32 1.5,-3.43 0.42,-1.16 0.89,-2.28 1.41,-3.38 0.41,-1.18 0.86,-2.33 1.37,-3.45 0.39,-1.18 0.83,-2.34 1.32,-3.47 0.37,-1.18 0.79,-2.34 1.25,-3.47 0.35,-1.19 0.76,-2.35 1.2,-3.48 0.11,-0.4 0.23,-0.79 0.35,-1.19 0.25,-0.79 0.52,-1.57 0.81,-2.34 0.3,-1.1 0.64,-2.21 1.03,-3.3 0.44,-1.19 0.74,-2.58 1.17,-3.82 0.3,-1.19 0.64,-2.38 1.03,-3.55 0.29,-1.24 0.64,-2.48 1.03,-3.71 0.27,-1.2 0.59,-2.4 0.96,-3.59 0.27,-1.26 0.6,-2.51 0.97,-3.76 0.26,-1.23 0.56,-2.46 0.91,-3.67 1.21,-5.99 3.45,-11.88 6.78,-17.42 15.65,-26 49.42,-34.39 75.42,-18.74 26,15.65 34.39,49.42 18.74,75.42 -3.33,5.53 -7.47,10.26 -12.19,14.13 -0.91,0.88 -1.85,1.72 -2.82,2.53 -0.91,0.89 -1.85,1.75 -2.82,2.57 -0.9,0.9 -1.82,1.75 -2.77,2.57 -0.88,0.9 -1.8,1.76 -2.74,2.59 -0.87,0.91 -1.77,1.77 -2.7,2.61 -0.86,0.92 -1.74,1.79 -2.67,2.64 -0.84,0.92 -1.71,1.81 -2.62,2.65 -0.83,0.94 -1.69,1.84 -2.59,2.7 -0.81,0.94 -1.66,1.84 -2.54,2.71 -0.79,0.95 -1.62,1.86 -2.49,2.74 -0.78,0.97 -1.6,1.89 -2.46,2.78 -0.75,0.97 -1.55,1.89 -2.38,2.79 -0.74,0.99 -1.52,1.93 -2.35,2.85 -0.72,0.99 -1.48,1.94 -2.28,2.86 -0.7,1 -1.44,1.97 -2.22,2.91 -0.67,1.01 -1.39,1.99 -2.16,2.93 -0.66,1.03 -1.36,2.03 -2.11,2.99 -0.63,1.04 -1.32,2.05 -2.05,3.03 -0.61,1.05 -1.27,2.07 -1.98,3.06 -0.59,1.06 -1.23,2.1 -1.91,3.1 -0.56,1.07 -1.17,2.11 -1.83,3.12 -0.55,1.09 -1.14,2.16 -1.79,3.19 -0.52,1.09 -1.09,2.17 -1.71,3.21 -0.5,1.11 -1.05,2.2 -1.65,3.26 -0.48,1.12 -1.01,2.22 -1.59,3.29 -0.46,1.13 -0.97,2.24 -1.53,3.33 -0.44,1.14 -0.93,2.26 -1.47,3.36 -0.42,1.15 -0.89,2.28 -1.41,3.39 -0.4,1.16 -0.86,2.31 -1.36,3.44 -0.38,1.16 -0.82,2.32 -1.3,3.45 -0.37,1.18 -0.79,2.35 -1.26,3.49 -0.35,1.18 -0.75,2.35 -1.2,3.5 -0.34,1.2 -0.73,2.39 -1.17,3.57 -0.32,1.2 -0.7,2.39 -1.12,3.56 -0.31,1.21 -0.67,2.42 -1.09,3.61 -0.3,1.21 -0.64,2.4 -1.04,3.59 -0.29,1.22 -0.62,2.43 -1.01,3.63 -0.28,1.23 -0.6,2.45 -0.98,3.67 -0.27,1.25 -0.59,2.49 -0.96,3.72 -0.25,1.2 -0.55,2.39 -0.89,3.58 -1.21,6 -3.46,11.89 -6.79,17.43 -15.65,26 -49.42,34.39 -75.42,18.74 -12.93,-7.79 -21.51,-20.05 -24.93,-33.61 -0.42,-1.24 -0.8,-2.5 -1.13,-3.77 -0.43,-1.24 -0.82,-2.49 -1.16,-3.76 -0.45,-1.26 -0.86,-2.53 -1.21,-3.82 -0.45,-1.23 -0.86,-2.48 -1.22,-3.74 -0.47,-1.23 -0.89,-2.48 -1.26,-3.74 -0.47,-1.21 -0.9,-2.44 -1.28,-3.69 -0.49,-1.22 -0.93,-2.45 -1.32,-3.71 -0.5,-1.2 -0.96,-2.43 -1.36,-3.67 -0.51,-1.19 -0.98,-2.41 -1.39,-3.64 -0.53,-1.2 -1.01,-2.42 -1.44,-3.66 -0.54,-1.18 -1.03,-2.38 -1.47,-3.61 -0.55,-1.17 -1.06,-2.37 -1.51,-3.6 -0.56,-1.16 -1.08,-2.34 -1.54,-3.55 -0.58,-1.15 -1.12,-2.34 -1.6,-3.54 -0.59,-1.14 -1.14,-2.31 -1.63,-3.51 -0.61,-1.14 -1.17,-2.31 -1.68,-3.5 -0.62,-1.12 -1.2,-2.27 -1.72,-3.45 -0.64,-1.12 -1.23,-2.26 -1.77,-3.44 -0.65,-1.11 -1.26,-2.25 -1.82,-3.42 -0.67,-1.1 -1.29,-2.22 -1.86,-3.38 -0.68,-1.09 -1.32,-2.21 -1.91,-3.36 -0.7,-1.08 -1.35,-2.19 -1.96,-3.33 -0.71,-1.06 -1.38,-2.16 -2,-3.3 -0.72,-1.06 -1.41,-2.14 -2.04,-3.27l-0.27 -0.38 -0.34 0.45c-0.67,1.1 -1.39,2.18 -2.15,3.22 -0.65,1.11 -1.35,2.19 -2.1,3.23 -0.63,1.11 -1.32,2.2 -2.05,3.25 -0.62,1.13 -1.29,2.23 -2.01,3.29 -0.61,1.14 -1.26,2.24 -1.96,3.32 -0.59,1.15 -1.24,2.27 -1.92,3.35 -0.58,1.16 -1.21,2.29 -1.88,3.39 -0.56,1.17 -1.18,2.31 -1.84,3.42 -0.55,1.19 -1.16,2.35 -1.81,3.48 -0.54,1.19 -1.12,2.35 -1.75,3.48 -0.52,1.2 -1.09,2.37 -1.71,3.51 -0.51,1.21 -1.07,2.39 -1.67,3.53 -0.49,1.21 -1.04,2.41 -1.64,3.57 -0.48,1.22 -1.01,2.41 -1.59,3.57 -0.47,1.22 -0.98,2.41 -1.54,3.57 -0.45,1.23 -0.96,2.43 -1.5,3.6 -0.8,2.24 -1.93,5.05 -2.9,7.25 -0.31,0.91 -0.64,1.83 -1.01,2.73 -0.12,0.31 -0.25,0.61 -0.38,0.91 -0.4,1.23 -0.86,2.46 -1.36,3.67 -0.4,1.25 -0.85,2.49 -1.35,3.73 -0.39,1.24 -0.82,2.48 -1.3,3.7 -0.38,1.27 -0.81,2.54 -1.3,3.79 -0.37,1.25 -0.78,2.5 -1.25,3.73z"/>
 </g>
</svg>
