<?xml version="1.0" standalone="no"?><!DOCTYPE svg PUBLIC "-//W3C//DTD SVG 1.1//EN" "http://www.w3.org/Graphics/SVG/1.1/DTD/svg11.dtd"><svg t="1608177603406" class="icon" viewBox="0 0 1024 1024" version="1.1" xmlns="http://www.w3.org/2000/svg" p-id="7239" xmlns:xlink="http://www.w3.org/1999/xlink" width="200" height="200"><defs><style type="text/css"></style></defs><path d="M753.82 853.21H270.33c-101.93 0-184.86-82.93-184.86-184.86V308.86c0-76.21 62-138.22 138.22-138.22 53.48 0 102.65 31.31 125.26 79.77l50.83 108.91c6.99 14.96 22.16 24.62 38.66 24.62h147.28c16.5 0 31.68-9.67 38.67-24.64l50.81-108.9c22.61-48.45 71.78-79.77 125.26-79.77 76.21 0 138.22 62 138.22 138.22v359.49c0 101.94-82.93 184.87-184.86 184.87zM223.69 255.96c-29.16 0-52.9 23.73-52.9 52.9v359.49c0 54.88 44.66 99.54 99.54 99.54h483.49c54.88 0 99.54-44.66 99.54-99.54V308.86c0-29.16-23.73-52.9-52.9-52.9-20.47 0-39.29 11.98-47.94 30.52L701.7 395.4c-20.96 44.87-66.48 73.86-115.98 73.86H438.43c-49.51 0-95.03-29-115.97-73.85l-50.84-108.93c-8.65-18.53-27.47-30.52-47.93-30.52z" fill="#1A1A1A" p-id="7240"></path></svg>